<?xml version="1.0" encoding="UTF-8" standalone="no"?>
<!DOCTYPE svg PUBLIC "-//W3C//DTD SVG 20010904//EN"
              "http://www.w3.org/TR/2001/REC-SVG-20010904/DTD/svg10.dtd">

<svg xmlns="http://www.w3.org/2000/svg"
     width="4.26667in" height="4.26667in"
     viewBox="0 0 1280 1280">
  <path id="Auswahl"
        fill="black" stroke="black" stroke-width="1"
        d="M 76.00,76.00
           C 76.00,76.00 1204.00,76.00 1204.00,76.00
             1204.00,76.00 1204.00,1204.00 1204.00,1204.00
             1204.00,1204.00 76.00,1204.00 76.00,1204.00
             76.00,1204.00 76.00,76.00 76.00,76.00 Z
           M 1091.00,187.00
           C 1091.00,187.00 1056.00,188.00 1056.00,188.00
             1056.00,188.00 990.00,188.00 990.00,188.00
             990.00,188.00 779.00,188.00 779.00,188.00
             779.00,188.00 377.00,188.00 377.00,188.00
             377.00,188.00 251.00,188.00 251.00,188.00
             251.00,188.00 212.00,188.00 212.00,188.00
             212.00,188.00 189.00,187.00 189.00,187.00
             189.00,187.00 188.00,216.00 188.00,216.00
             188.00,216.00 188.00,273.00 188.00,273.00
             188.00,273.00 188.00,459.00 188.00,459.00
             188.00,459.00 188.00,896.00 188.00,896.00
             188.00,896.00 188.00,1030.00 188.00,1030.00
             188.00,1030.00 188.00,1071.00 188.00,1071.00
             188.00,1071.00 189.00,1093.00 189.00,1093.00
             196.90,1091.08 227.79,1092.00 238.00,1092.00
             238.00,1092.00 336.00,1092.00 336.00,1092.00
             336.00,1092.00 336.00,716.00 336.00,716.00
             336.00,716.00 262.00,716.00 262.00,716.00
             262.00,716.00 262.00,660.00 262.00,660.00
             262.02,650.33 262.67,650.97 278.00,644.14
             278.00,644.14 318.00,624.58 318.00,624.58
             321.12,623.22 333.44,617.61 335.01,615.37
             336.25,613.58 336.00,610.13 336.00,608.00
             336.00,608.00 336.00,564.00 336.00,564.00
             336.18,548.51 340.28,524.91 344.72,510.00
             347.86,499.47 352.54,489.26 358.44,480.00
             389.67,430.92 449.01,419.47 503.00,419.00
             503.00,419.00 532.00,419.00 532.00,419.00
             532.00,419.00 575.00,423.80 575.00,423.80
             575.00,423.80 616.00,433.42 616.00,433.42
             616.00,433.42 633.00,439.00 633.00,439.00
             633.00,439.00 614.31,492.00 614.31,492.00
             614.31,492.00 599.00,537.00 599.00,537.00
             599.00,537.00 564.00,528.45 564.00,528.45
             547.17,525.06 535.96,524.81 519.00,525.00
             504.44,525.17 490.46,531.00 481.78,543.00
             478.72,547.24 475.45,554.04 473.70,559.00
             471.25,565.95 470.01,574.64 470.00,582.00
             470.00,582.00 470.00,616.00 470.00,616.00
             470.00,616.00 586.00,616.00 586.00,616.00
             586.00,616.00 586.00,716.00 586.00,716.00
             586.00,716.00 470.00,716.00 470.00,716.00
             470.00,716.00 470.00,1092.00 470.00,1092.00
             470.00,1092.00 828.00,1092.00 828.00,1092.00
             828.00,1092.00 828.00,824.00 828.00,824.00
             828.00,824.00 828.00,689.00 828.00,689.00
             828.00,689.00 829.00,674.00 829.00,674.00
             829.00,674.00 829.00,653.00 829.00,653.00
             829.00,653.00 830.00,640.00 830.00,640.00
             830.00,640.00 831.00,609.00 831.00,609.00
             831.00,609.00 792.00,644.83 792.00,644.83
             792.00,644.83 749.00,679.80 749.00,679.80
             749.00,679.80 710.00,711.00 710.00,711.00
             710.00,711.00 687.20,681.00 687.20,681.00
             687.20,681.00 663.00,651.00 663.00,651.00
             663.00,651.00 645.00,629.00 645.00,629.00
             645.00,629.00 701.00,585.00 701.00,585.00
             701.00,585.00 799.00,507.00 799.00,507.00
             799.00,507.00 837.00,476.80 837.00,476.80
             845.70,469.84 849.51,464.02 861.00,464.00
             861.00,464.00 964.00,464.00 964.00,464.00
             964.00,464.00 964.00,1092.00 964.00,1092.00
             964.00,1092.00 1048.00,1092.00 1048.00,1092.00
             1048.00,1092.00 1091.00,1093.00 1091.00,1093.00
             1091.00,1093.00 1092.00,1071.00 1092.00,1071.00
             1092.00,1071.00 1092.00,1030.00 1092.00,1030.00
             1092.00,1030.00 1092.00,896.00 1092.00,896.00
             1092.00,896.00 1092.00,459.00 1092.00,459.00
             1092.00,459.00 1092.00,273.00 1092.00,273.00
             1092.00,273.00 1092.00,216.00 1092.00,216.00
             1092.00,216.00 1091.00,187.00 1091.00,187.00 Z" />
</svg>
